<mxfile host="app.diagrams.net" modified="2021-07-24T16:21:02.634Z" agent="5.0 (Windows NT 10.0; Win64; x64) AppleWebKit/537.36 (KHTML, like Gecko) Chrome/91.0.4472.164 Safari/537.36" etag="ig050y78-3jlWvdjTceL" version="14.9.2" type="github">
  <diagram id="1APk8HvbcwFBYnqSMyEE" name="Page-1">
    <mxGraphModel dx="1038" dy="585" grid="1" gridSize="10" guides="1" tooltips="1" connect="1" arrows="1" fold="1" page="1" pageScale="1" pageWidth="827" pageHeight="1169" math="0" shadow="0">
      <root>
        <mxCell id="0" />
        <mxCell id="1" parent="0" />
        <mxCell id="30EqsvoiaZEt6jQ-Gnjw-14" value="" style="ellipse;html=1;shape=startState;fillColor=#000000;strokeColor=#ff0000;" vertex="1" parent="1">
          <mxGeometry x="260" y="870" width="30" height="30" as="geometry" />
        </mxCell>
        <mxCell id="30EqsvoiaZEt6jQ-Gnjw-15" value="" style="edgeStyle=orthogonalEdgeStyle;html=1;verticalAlign=bottom;endArrow=open;endSize=8;strokeColor=#ff0000;" edge="1" source="30EqsvoiaZEt6jQ-Gnjw-14" parent="1">
          <mxGeometry relative="1" as="geometry">
            <mxPoint x="275" y="960" as="targetPoint" />
          </mxGeometry>
        </mxCell>
        <mxCell id="30EqsvoiaZEt6jQ-Gnjw-16" value="Activity" style="rounded=1;whiteSpace=wrap;html=1;arcSize=40;fontColor=#000000;fillColor=#ffffc0;strokeColor=#ff0000;" vertex="1" parent="1">
          <mxGeometry x="215" y="960" width="120" height="40" as="geometry" />
        </mxCell>
        <mxCell id="30EqsvoiaZEt6jQ-Gnjw-17" value="" style="edgeStyle=orthogonalEdgeStyle;html=1;verticalAlign=bottom;endArrow=open;endSize=8;strokeColor=#ff0000;" edge="1" source="30EqsvoiaZEt6jQ-Gnjw-16" parent="1">
          <mxGeometry relative="1" as="geometry">
            <mxPoint x="275" y="1060" as="targetPoint" />
          </mxGeometry>
        </mxCell>
        <mxCell id="30EqsvoiaZEt6jQ-Gnjw-18" value="Composite State" style="swimlane;fontStyle=1;align=center;verticalAlign=middle;childLayout=stackLayout;horizontal=1;startSize=30;horizontalStack=0;resizeParent=0;resizeLast=1;container=0;fontColor=#000000;collapsible=0;rounded=1;arcSize=30;strokeColor=#ff0000;fillColor=#ffffc0;swimlaneFillColor=#ffffc0;dropTarget=0;" vertex="1" parent="1">
          <mxGeometry x="195" y="1060" width="160" height="60" as="geometry" />
        </mxCell>
        <mxCell id="30EqsvoiaZEt6jQ-Gnjw-19" value="Subtitle" style="text;html=1;strokeColor=none;fillColor=none;align=center;verticalAlign=middle;spacingLeft=4;spacingRight=4;whiteSpace=wrap;overflow=hidden;rotatable=0;fontColor=#000000;" vertex="1" parent="30EqsvoiaZEt6jQ-Gnjw-18">
          <mxGeometry y="30" width="160" height="30" as="geometry" />
        </mxCell>
        <mxCell id="30EqsvoiaZEt6jQ-Gnjw-20" value="" style="edgeStyle=orthogonalEdgeStyle;html=1;verticalAlign=bottom;endArrow=open;endSize=8;strokeColor=#ff0000;" edge="1" source="30EqsvoiaZEt6jQ-Gnjw-18" parent="1">
          <mxGeometry relative="1" as="geometry">
            <mxPoint x="275" y="1180" as="targetPoint" />
          </mxGeometry>
        </mxCell>
      </root>
    </mxGraphModel>
  </diagram>
</mxfile>
